<svg aria-hidden="true" style="position: absolute; width: 0; height: 0; overflow: hidden;" version="1.1" xmlns="http://www.w3.org/2000/svg" xmlns:xlink="http://www.w3.org/1999/xlink">
<defs>
<symbol id="icon-tasty-desk" viewBox="0 0 184 32">
<path fill="#9bb537" style="fill: var(--color1, #9bb537)" d="M27.835 7.020v2.846h-8.974v-2.846h8.974zM21.077 3.28h3.679v14.655c0 0.495 0.075 0.874 0.224 1.138 0.156 0.258 0.359 0.434 0.61 0.529s0.529 0.142 0.833 0.142c0.23 0 0.44-0.017 0.63-0.051 0.196-0.034 0.346-0.064 0.447-0.091l0.62 2.876c-0.196 0.068-0.478 0.142-0.844 0.224-0.359 0.081-0.799 0.128-1.321 0.142-0.921 0.027-1.751-0.112-2.49-0.417-0.738-0.312-1.325-0.793-1.758-1.443-0.427-0.65-0.637-1.464-0.63-2.439v-15.265zM34.26 22.946c-0.989 0-1.88-0.176-2.673-0.529-0.786-0.359-1.409-0.888-1.87-1.586-0.454-0.698-0.681-1.558-0.681-2.581 0-0.881 0.163-1.609 0.488-2.185s0.769-1.037 1.331-1.382c0.562-0.346 1.196-0.606 1.901-0.782 0.711-0.183 1.447-0.315 2.205-0.396 0.915-0.095 1.656-0.18 2.226-0.254 0.569-0.081 0.982-0.203 1.24-0.366 0.264-0.169 0.396-0.43 0.396-0.782v-0.061c0-0.766-0.227-1.359-0.681-1.779s-1.108-0.63-1.962-0.63c-0.901 0-1.616 0.196-2.145 0.59-0.522 0.393-0.874 0.857-1.057 1.392l-3.435-0.488c0.271-0.949 0.718-1.741 1.341-2.378 0.623-0.644 1.385-1.125 2.287-1.443 0.901-0.325 1.897-0.488 2.988-0.488 0.752 0 1.501 0.088 2.246 0.264s1.426 0.467 2.043 0.874c0.617 0.4 1.111 0.945 1.484 1.636 0.38 0.691 0.569 1.555 0.569 2.592v10.448h-3.537v-2.145h-0.122c-0.224 0.434-0.538 0.84-0.945 1.22-0.4 0.373-0.905 0.674-1.514 0.905-0.603 0.224-1.311 0.335-2.124 0.335zM35.215 20.243c0.738 0 1.379-0.146 1.921-0.437 0.542-0.298 0.959-0.691 1.25-1.179 0.298-0.488 0.447-1.020 0.447-1.596v-1.839c-0.115 0.095-0.312 0.183-0.589 0.264-0.271 0.081-0.576 0.152-0.915 0.213s-0.674 0.115-1.006 0.163-0.62 0.088-0.864 0.122c-0.549 0.075-1.040 0.196-1.474 0.366s-0.776 0.407-1.026 0.711c-0.251 0.298-0.376 0.684-0.376 1.159 0 0.678 0.247 1.189 0.742 1.535s1.125 0.518 1.89 0.518zM57.395 11.146l-3.354 0.366c-0.095-0.339-0.261-0.657-0.498-0.955-0.23-0.298-0.542-0.539-0.935-0.722s-0.874-0.274-1.443-0.274c-0.766 0-1.409 0.166-1.931 0.498-0.515 0.332-0.769 0.762-0.762 1.291-0.007 0.454 0.159 0.823 0.498 1.108 0.346 0.284 0.915 0.518 1.707 0.701l2.663 0.569c1.477 0.319 2.575 0.823 3.293 1.514 0.725 0.691 1.091 1.596 1.098 2.713-0.007 0.982-0.295 1.85-0.864 2.602-0.562 0.745-1.345 1.328-2.348 1.748s-2.154 0.63-3.455 0.63c-1.911 0-3.449-0.4-4.614-1.199-1.165-0.806-1.86-1.927-2.083-3.364l3.588-0.346c0.163 0.705 0.508 1.236 1.037 1.596s1.216 0.538 2.063 0.538c0.874 0 1.575-0.18 2.104-0.538 0.535-0.359 0.803-0.803 0.803-1.331 0-0.447-0.173-0.817-0.518-1.108-0.339-0.291-0.867-0.515-1.586-0.671l-2.663-0.559c-1.497-0.312-2.605-0.837-3.323-1.575-0.718-0.745-1.074-1.687-1.067-2.825-0.007-0.962 0.254-1.795 0.782-2.5 0.535-0.711 1.277-1.26 2.226-1.646 0.955-0.393 2.056-0.59 3.303-0.59 1.83 0 3.269 0.39 4.319 1.169 1.057 0.779 1.711 1.833 1.961 3.161zM67.414 7.020v2.846h-8.974v-2.846h8.974zM60.656 3.28h3.679v14.655c0 0.495 0.075 0.874 0.224 1.138 0.156 0.258 0.359 0.434 0.61 0.529s0.529 0.142 0.834 0.142c0.231 0 0.44-0.017 0.63-0.051 0.196-0.034 0.346-0.064 0.447-0.091l0.62 2.876c-0.196 0.068-0.478 0.142-0.844 0.224-0.359 0.081-0.799 0.128-1.321 0.142-0.922 0.027-1.751-0.112-2.49-0.417-0.738-0.312-1.325-0.793-1.758-1.443-0.427-0.65-0.637-1.464-0.63-2.439v-15.265zM71.633 28.485c-0.502 0-0.966-0.040-1.392-0.122-0.42-0.075-0.755-0.163-1.006-0.264l0.854-2.866c0.535 0.156 1.013 0.23 1.433 0.224s0.789-0.139 1.108-0.396c0.325-0.251 0.599-0.671 0.823-1.26l0.315-0.844-5.661-15.936h3.903l3.598 11.789h0.163l3.608-11.789h3.913l-6.25 17.501c-0.291 0.827-0.678 1.535-1.159 2.124-0.481 0.596-1.070 1.050-1.768 1.362-0.691 0.319-1.518 0.478-2.48 0.478z"></path>
<path fill="currentColor" style="fill: currentColor" d="M92.486 7.020v2.846h-8.974v-2.846h8.974zM85.728 3.28h3.679v14.655c0 0.495 0.075 0.874 0.224 1.138 0.156 0.258 0.359 0.434 0.61 0.529s0.529 0.142 0.834 0.142c0.231 0 0.44-0.017 0.63-0.051 0.196-0.034 0.346-0.064 0.447-0.091l0.62 2.876c-0.196 0.068-0.478 0.142-0.844 0.224-0.359 0.081-0.799 0.128-1.321 0.142-0.921 0.027-1.751-0.112-2.49-0.417-0.738-0.312-1.325-0.793-1.758-1.443-0.427-0.65-0.637-1.464-0.63-2.439v-15.265zM94.419 22.631v-15.611h3.567v2.602h0.163c0.284-0.901 0.773-1.596 1.464-2.083 0.698-0.495 1.494-0.742 2.388-0.742 0.203 0 0.43 0.010 0.681 0.031 0.258 0.013 0.471 0.037 0.64 0.071v3.384c-0.156-0.054-0.403-0.102-0.742-0.142-0.332-0.047-0.654-0.071-0.966-0.071-0.671 0-1.274 0.146-1.809 0.437-0.528 0.284-0.945 0.681-1.25 1.189s-0.457 1.094-0.457 1.758v9.177h-3.679zM110.889 22.936c-1.565 0-2.917-0.325-4.055-0.976-1.132-0.657-2.002-1.585-2.612-2.785-0.61-1.206-0.915-2.625-0.915-4.258 0-1.606 0.305-3.015 0.915-4.228 0.617-1.22 1.477-2.168 2.581-2.846 1.104-0.684 2.402-1.026 3.892-1.026 0.962 0 1.87 0.156 2.724 0.467 0.861 0.305 1.619 0.779 2.277 1.423 0.664 0.644 1.186 1.463 1.565 2.46 0.379 0.989 0.569 2.168 0.569 3.537v1.128h-12.795v-2.48h9.269c-0.007-0.705-0.159-1.331-0.457-1.88-0.298-0.555-0.715-0.993-1.25-1.311-0.529-0.319-1.145-0.478-1.85-0.478-0.752 0-1.413 0.183-1.982 0.549-0.569 0.359-1.013 0.833-1.331 1.423-0.312 0.583-0.471 1.223-0.478 1.921v2.165c0 0.908 0.166 1.687 0.498 2.337 0.332 0.644 0.796 1.138 1.392 1.484 0.596 0.339 1.294 0.508 2.094 0.508 0.535 0 1.020-0.075 1.453-0.224 0.434-0.156 0.81-0.383 1.128-0.681s0.559-0.667 0.722-1.108l3.435 0.386c-0.217 0.908-0.63 1.701-1.24 2.378-0.603 0.671-1.375 1.192-2.317 1.565-0.942 0.366-2.019 0.549-3.232 0.549zM124.29 22.946c-0.989 0-1.88-0.176-2.673-0.529-0.786-0.359-1.409-0.888-1.87-1.586-0.454-0.698-0.681-1.558-0.681-2.581 0-0.881 0.163-1.609 0.488-2.185s0.769-1.037 1.331-1.382c0.562-0.346 1.196-0.606 1.901-0.782 0.711-0.183 1.447-0.315 2.205-0.396 0.915-0.095 1.656-0.18 2.226-0.254 0.569-0.081 0.982-0.203 1.24-0.366 0.264-0.169 0.396-0.43 0.396-0.782v-0.061c0-0.766-0.227-1.359-0.681-1.779s-1.108-0.63-1.961-0.63c-0.901 0-1.616 0.196-2.144 0.59-0.522 0.393-0.874 0.857-1.057 1.392l-3.435-0.488c0.271-0.949 0.718-1.741 1.341-2.378 0.623-0.644 1.385-1.125 2.287-1.443 0.901-0.325 1.897-0.488 2.988-0.488 0.752 0 1.501 0.088 2.246 0.264s1.426 0.467 2.043 0.874c0.617 0.4 1.111 0.945 1.484 1.636 0.379 0.691 0.569 1.555 0.569 2.592v10.448h-3.537v-2.145h-0.122c-0.224 0.434-0.539 0.84-0.945 1.22-0.4 0.373-0.905 0.674-1.514 0.905-0.603 0.224-1.311 0.335-2.124 0.335zM125.246 20.243c0.738 0 1.379-0.146 1.921-0.437 0.542-0.298 0.959-0.691 1.25-1.179 0.298-0.488 0.447-1.020 0.447-1.596v-1.839c-0.115 0.095-0.312 0.183-0.589 0.264-0.271 0.081-0.576 0.152-0.915 0.213s-0.674 0.115-1.006 0.163-0.62 0.088-0.864 0.122c-0.549 0.075-1.040 0.196-1.474 0.366s-0.776 0.407-1.026 0.711c-0.251 0.298-0.376 0.684-0.376 1.159 0 0.678 0.247 1.189 0.742 1.535s1.125 0.518 1.89 0.518zM142.882 7.020v2.846h-8.974v-2.846h8.974zM136.124 3.28h3.679v14.655c0 0.495 0.075 0.874 0.224 1.138 0.156 0.258 0.359 0.434 0.61 0.529s0.529 0.142 0.833 0.142c0.231 0 0.44-0.017 0.63-0.051 0.196-0.034 0.346-0.064 0.447-0.091l0.62 2.876c-0.196 0.068-0.478 0.142-0.844 0.224-0.359 0.081-0.799 0.128-1.321 0.142-0.921 0.027-1.751-0.112-2.49-0.417-0.738-0.312-1.325-0.793-1.758-1.443-0.427-0.65-0.637-1.464-0.63-2.439v-15.265zM156.929 11.146l-3.354 0.366c-0.095-0.339-0.261-0.657-0.498-0.955-0.231-0.298-0.542-0.539-0.935-0.722s-0.874-0.274-1.443-0.274c-0.766 0-1.409 0.166-1.931 0.498-0.515 0.332-0.769 0.762-0.762 1.291-0.007 0.454 0.159 0.823 0.498 1.108 0.346 0.284 0.915 0.518 1.707 0.701l2.663 0.569c1.477 0.319 2.575 0.823 3.293 1.514 0.725 0.691 1.091 1.596 1.098 2.713-0.007 0.982-0.295 1.85-0.864 2.602-0.562 0.745-1.345 1.328-2.348 1.748s-2.154 0.63-3.455 0.63c-1.911 0-3.449-0.4-4.614-1.199-1.165-0.806-1.86-1.927-2.083-3.364l3.588-0.346c0.163 0.705 0.508 1.236 1.037 1.596s1.216 0.538 2.063 0.538c0.874 0 1.575-0.18 2.104-0.538 0.535-0.359 0.803-0.803 0.803-1.331 0-0.447-0.173-0.817-0.518-1.108-0.339-0.291-0.867-0.515-1.585-0.671l-2.663-0.559c-1.497-0.312-2.605-0.837-3.323-1.575-0.718-0.745-1.074-1.687-1.067-2.825-0.007-0.962 0.254-1.795 0.782-2.5 0.535-0.711 1.277-1.26 2.226-1.646 0.955-0.393 2.056-0.59 3.303-0.59 1.829 0 3.269 0.39 4.319 1.169 1.057 0.779 1.711 1.833 1.962 3.161zM161.419 22.854c-0.617 0-1.145-0.217-1.585-0.65s-0.657-0.962-0.65-1.585c-0.007-0.61 0.21-1.132 0.65-1.565s0.969-0.65 1.585-0.65c0.596 0 1.115 0.217 1.555 0.65 0.447 0.434 0.674 0.955 0.681 1.565-0.007 0.413-0.115 0.789-0.325 1.128-0.203 0.339-0.474 0.61-0.813 0.813-0.332 0.196-0.698 0.295-1.098 0.295z"></path>
</symbol>

<symbol id="icon-down" viewBox="0 0 32 32">
<path stroke-linejoin="round" stroke-linecap="round" stroke-miterlimit="4" stroke-width="3.5556" d="M8 12l8 8 8-8"></path>
</symbol>

<symbol id="icon-tasty-mob" viewBox="0 0 173 32">
<path fill="#9bb537" style="fill: var(--color1, #9bb537)" d="M33.368 7.915v2.378h-7.498v-2.378h7.498zM27.721 4.79h3.074v12.246c0 0.413 0.062 0.73 0.187 0.951 0.13 0.215 0.3 0.362 0.51 0.442s0.442 0.119 0.696 0.119c0.193 0 0.368-0.014 0.526-0.043 0.164-0.028 0.289-0.054 0.374-0.076l0.518 2.403c-0.164 0.057-0.399 0.119-0.705 0.187-0.3 0.068-0.668 0.107-1.104 0.119-0.77 0.023-1.463-0.093-2.080-0.348-0.617-0.26-1.107-0.663-1.469-1.206-0.357-0.543-0.532-1.223-0.526-2.038v-12.755zM38.736 21.223c-0.827 0-1.571-0.147-2.233-0.442-0.657-0.3-1.177-0.742-1.563-1.325-0.379-0.583-0.569-1.302-0.569-2.157 0-0.736 0.136-1.345 0.407-1.826s0.643-0.866 1.113-1.155c0.47-0.289 0.999-0.507 1.588-0.654 0.594-0.153 1.209-0.263 1.843-0.331 0.764-0.079 1.384-0.15 1.86-0.212 0.476-0.068 0.821-0.17 1.036-0.306 0.221-0.142 0.331-0.36 0.331-0.654v-0.051c0-0.64-0.19-1.135-0.569-1.486s-0.926-0.527-1.639-0.527c-0.753 0-1.35 0.164-1.792 0.493-0.436 0.328-0.73 0.716-0.883 1.163l-2.87-0.407c0.226-0.793 0.6-1.455 1.121-1.987 0.521-0.538 1.158-0.94 1.911-1.206 0.753-0.272 1.585-0.407 2.497-0.407 0.629 0 1.254 0.074 1.877 0.221s1.192 0.391 1.707 0.73c0.515 0.334 0.929 0.79 1.24 1.367 0.317 0.577 0.476 1.299 0.476 2.166v8.73h-2.955v-1.792h-0.102c-0.187 0.363-0.45 0.702-0.79 1.019-0.334 0.311-0.756 0.563-1.266 0.756-0.504 0.187-1.096 0.28-1.775 0.28zM39.534 18.964c0.617 0 1.152-0.122 1.605-0.365 0.453-0.249 0.801-0.577 1.044-0.985 0.249-0.407 0.374-0.852 0.374-1.333v-1.537c-0.096 0.079-0.26 0.153-0.493 0.221-0.227 0.068-0.481 0.127-0.764 0.178s-0.563 0.096-0.841 0.136c-0.277 0.040-0.518 0.074-0.722 0.102-0.459 0.062-0.869 0.164-1.231 0.306s-0.648 0.34-0.858 0.594c-0.21 0.249-0.314 0.572-0.314 0.968 0 0.566 0.207 0.994 0.62 1.282s0.94 0.433 1.58 0.433zM58.067 11.363l-2.802 0.306c-0.079-0.283-0.218-0.549-0.416-0.798-0.193-0.249-0.453-0.45-0.781-0.603s-0.73-0.229-1.206-0.229c-0.64 0-1.177 0.139-1.614 0.416-0.43 0.277-0.643 0.637-0.637 1.079-0.006 0.379 0.133 0.688 0.416 0.926 0.289 0.238 0.764 0.433 1.427 0.586l2.225 0.476c1.234 0.266 2.151 0.688 2.752 1.265 0.606 0.577 0.912 1.333 0.917 2.267-0.006 0.821-0.246 1.546-0.722 2.174-0.47 0.623-1.124 1.11-1.962 1.46s-1.8 0.527-2.887 0.527c-1.596 0-2.882-0.334-3.856-1.002-0.974-0.674-1.554-1.611-1.741-2.811l2.998-0.289c0.136 0.589 0.425 1.033 0.866 1.333s1.016 0.45 1.724 0.45c0.73 0 1.316-0.15 1.758-0.45 0.447-0.3 0.671-0.671 0.671-1.113 0-0.374-0.144-0.682-0.433-0.926-0.283-0.243-0.725-0.43-1.325-0.56l-2.225-0.467c-1.251-0.26-2.177-0.699-2.777-1.316-0.6-0.623-0.897-1.41-0.892-2.361-0.006-0.804 0.212-1.5 0.654-2.089 0.447-0.594 1.067-1.053 1.86-1.376 0.798-0.328 1.718-0.493 2.76-0.493 1.529 0 2.732 0.326 3.609 0.977 0.883 0.651 1.429 1.532 1.639 2.641zM66.44 7.915v2.378h-7.498v-2.378h7.498zM60.792 4.79h3.074v12.246c0 0.413 0.063 0.73 0.187 0.951 0.13 0.215 0.3 0.362 0.51 0.442s0.442 0.119 0.697 0.119c0.192 0 0.368-0.014 0.526-0.043 0.164-0.028 0.289-0.054 0.374-0.076l0.518 2.403c-0.164 0.057-0.399 0.119-0.705 0.187-0.3 0.068-0.668 0.107-1.104 0.119-0.77 0.023-1.463-0.093-2.081-0.348-0.617-0.26-1.107-0.663-1.469-1.206-0.357-0.543-0.532-1.223-0.527-2.038v-12.755zM69.965 25.851c-0.419 0-0.807-0.034-1.163-0.102-0.351-0.063-0.631-0.136-0.841-0.221l0.713-2.395c0.447 0.13 0.846 0.192 1.197 0.187s0.66-0.116 0.926-0.331c0.272-0.21 0.501-0.56 0.688-1.053l0.263-0.705-4.73-13.316h3.261l3.006 9.851h0.136l3.015-9.851h3.269l-5.222 14.623c-0.243 0.691-0.566 1.283-0.968 1.775-0.402 0.498-0.894 0.878-1.478 1.138-0.577 0.266-1.268 0.399-2.072 0.399z"></path>
<path fill="currentColor" style="fill: currentColor" d="M87.39 7.915v2.378h-7.498v-2.378h7.498zM81.742 4.79h3.074v12.246c0 0.413 0.063 0.73 0.187 0.951 0.13 0.215 0.3 0.362 0.51 0.442s0.442 0.119 0.696 0.119c0.193 0 0.368-0.014 0.527-0.043 0.164-0.028 0.289-0.054 0.374-0.076l0.518 2.403c-0.164 0.057-0.399 0.119-0.705 0.187-0.3 0.068-0.668 0.107-1.104 0.119-0.77 0.023-1.463-0.093-2.081-0.348-0.617-0.26-1.107-0.663-1.469-1.206-0.357-0.543-0.532-1.223-0.527-2.038v-12.755zM89.004 20.959v-13.044h2.981v2.174h0.136c0.238-0.753 0.646-1.333 1.223-1.741 0.583-0.413 1.249-0.62 1.996-0.62 0.17 0 0.359 0.009 0.569 0.026 0.215 0.011 0.393 0.031 0.535 0.060v2.828c-0.13-0.045-0.337-0.085-0.62-0.119-0.277-0.040-0.546-0.060-0.807-0.060-0.56 0-1.064 0.122-1.512 0.365-0.442 0.238-0.79 0.569-1.044 0.993s-0.382 0.914-0.382 1.469v7.668h-3.074zM102.767 21.214c-1.308 0-2.437-0.272-3.389-0.815-0.945-0.549-1.673-1.325-2.182-2.327-0.51-1.008-0.764-2.194-0.764-3.558 0-1.342 0.255-2.519 0.764-3.533 0.515-1.019 1.234-1.812 2.157-2.378 0.923-0.572 2.007-0.858 3.252-0.858 0.804 0 1.563 0.13 2.276 0.39 0.719 0.255 1.353 0.651 1.902 1.189 0.555 0.538 0.991 1.223 1.308 2.055 0.317 0.827 0.476 1.812 0.476 2.955v0.943h-10.692v-2.072h7.745c-0.006-0.589-0.133-1.113-0.382-1.571-0.249-0.464-0.597-0.829-1.044-1.096-0.442-0.266-0.957-0.399-1.546-0.399-0.629 0-1.18 0.153-1.656 0.459-0.476 0.3-0.846 0.696-1.113 1.189-0.26 0.487-0.394 1.022-0.399 1.605v1.809c0 0.759 0.139 1.41 0.416 1.953 0.277 0.538 0.665 0.951 1.163 1.24 0.498 0.283 1.081 0.424 1.749 0.424 0.447 0 0.852-0.062 1.214-0.187 0.362-0.13 0.676-0.32 0.943-0.569s0.467-0.557 0.603-0.926l2.87 0.323c-0.181 0.759-0.526 1.421-1.036 1.987-0.504 0.56-1.149 0.996-1.936 1.308-0.787 0.306-1.687 0.459-2.7 0.459zM113.965 21.223c-0.826 0-1.571-0.147-2.233-0.442-0.657-0.3-1.177-0.742-1.563-1.325-0.379-0.583-0.569-1.302-0.569-2.157 0-0.736 0.136-1.345 0.408-1.826s0.643-0.866 1.113-1.155 0.999-0.507 1.588-0.654c0.594-0.153 1.209-0.263 1.843-0.331 0.764-0.079 1.384-0.15 1.86-0.212 0.476-0.068 0.821-0.17 1.036-0.306 0.221-0.142 0.331-0.36 0.331-0.654v-0.051c0-0.64-0.19-1.135-0.569-1.486s-0.926-0.527-1.639-0.527c-0.753 0-1.35 0.164-1.792 0.493-0.436 0.328-0.73 0.716-0.883 1.163l-2.87-0.407c0.226-0.793 0.6-1.455 1.121-1.987 0.521-0.538 1.158-0.94 1.911-1.206 0.753-0.272 1.585-0.407 2.497-0.407 0.629 0 1.254 0.074 1.877 0.221s1.192 0.391 1.707 0.73c0.515 0.334 0.929 0.79 1.24 1.367 0.317 0.577 0.476 1.299 0.476 2.166v8.73h-2.955v-1.792h-0.102c-0.187 0.363-0.45 0.702-0.79 1.019-0.334 0.311-0.756 0.563-1.266 0.756-0.504 0.187-1.096 0.28-1.775 0.28zM114.763 18.964c0.617 0 1.152-0.122 1.605-0.365 0.453-0.249 0.801-0.577 1.044-0.985 0.249-0.407 0.374-0.852 0.374-1.333v-1.537c-0.096 0.079-0.26 0.153-0.493 0.221-0.227 0.068-0.481 0.127-0.764 0.178s-0.563 0.096-0.841 0.136c-0.277 0.040-0.518 0.074-0.722 0.102-0.459 0.062-0.869 0.164-1.231 0.306s-0.648 0.34-0.858 0.594c-0.209 0.249-0.314 0.572-0.314 0.968 0 0.566 0.207 0.994 0.62 1.282s0.94 0.433 1.579 0.433zM129.5 7.915v2.378h-7.499v-2.378h7.499zM123.853 4.79h3.074v12.246c0 0.413 0.062 0.73 0.187 0.951 0.13 0.215 0.3 0.362 0.51 0.442s0.442 0.119 0.696 0.119c0.193 0 0.368-0.014 0.527-0.043 0.164-0.028 0.289-0.054 0.374-0.076l0.518 2.403c-0.164 0.057-0.399 0.119-0.705 0.187-0.3 0.068-0.668 0.107-1.104 0.119-0.77 0.023-1.463-0.093-2.080-0.348-0.617-0.26-1.107-0.663-1.469-1.206-0.357-0.543-0.532-1.223-0.526-2.038v-12.755zM141.237 11.363l-2.802 0.306c-0.080-0.283-0.218-0.549-0.416-0.798-0.193-0.249-0.453-0.45-0.781-0.603s-0.73-0.229-1.206-0.229c-0.64 0-1.177 0.139-1.613 0.416-0.43 0.277-0.643 0.637-0.637 1.079-0.006 0.379 0.133 0.688 0.416 0.926 0.289 0.238 0.764 0.433 1.427 0.586l2.225 0.476c1.234 0.266 2.151 0.688 2.752 1.265 0.606 0.577 0.912 1.333 0.917 2.267-0.006 0.821-0.246 1.546-0.722 2.174-0.47 0.623-1.124 1.11-1.962 1.46s-1.8 0.527-2.887 0.527c-1.596 0-2.882-0.334-3.856-1.002-0.974-0.674-1.554-1.611-1.741-2.811l2.998-0.289c0.136 0.589 0.424 1.033 0.866 1.333s1.016 0.45 1.724 0.45c0.73 0 1.316-0.15 1.758-0.45 0.447-0.3 0.671-0.671 0.671-1.113 0-0.374-0.144-0.682-0.433-0.926-0.283-0.243-0.725-0.43-1.325-0.56l-2.225-0.467c-1.251-0.26-2.177-0.699-2.777-1.316-0.6-0.623-0.897-1.41-0.892-2.361-0.006-0.804 0.212-1.5 0.654-2.089 0.447-0.594 1.067-1.053 1.86-1.376 0.798-0.328 1.718-0.493 2.76-0.493 1.529 0 2.732 0.326 3.609 0.977 0.883 0.651 1.429 1.532 1.639 2.641zM144.989 21.146c-0.515 0-0.957-0.181-1.325-0.543s-0.549-0.804-0.544-1.325c-0.006-0.51 0.176-0.946 0.544-1.308s0.809-0.543 1.325-0.543c0.498 0 0.931 0.181 1.3 0.543 0.374 0.362 0.563 0.798 0.569 1.308-0.006 0.346-0.096 0.66-0.272 0.943-0.17 0.283-0.396 0.51-0.679 0.679-0.277 0.164-0.583 0.246-0.917 0.246z"></path>
</symbol>

<symbol id="icon-left" viewBox="0 0 34 32">
<path d="M14.934 16.947c-0.125-0.124-0.224-0.271-0.292-0.434s-0.103-0.337-0.103-0.513 0.035-0.35 0.103-0.513c0.068-0.162 0.167-0.31 0.292-0.434l6.12-6.107c0.125-0.124 0.224-0.271 0.292-0.434s0.103-0.337 0.103-0.513c0-0.176-0.035-0.35-0.103-0.513s-0.167-0.31-0.292-0.434c-0.25-0.248-0.588-0.388-0.94-0.388s-0.69 0.139-0.94 0.388l-6.12 6.12c-0.749 0.75-1.17 1.767-1.17 2.827s0.421 2.077 1.17 2.827l6.12 6.12c0.248 0.246 0.584 0.385 0.933 0.387 0.176 0.001 0.349-0.033 0.512-0.099s0.31-0.164 0.435-0.288c0.125-0.124 0.224-0.271 0.292-0.434s0.103-0.337 0.103-0.513-0.035-0.35-0.103-0.513c-0.068-0.162-0.167-0.31-0.292-0.434l-6.12-6.107z"></path>
</symbol>

<symbol id="icon-right" viewBox="0 0 34 32">
<path d="M18.666 16.947c0.125-0.124 0.224-0.272 0.292-0.434s0.103-0.337 0.103-0.513-0.035-0.35-0.103-0.513c-0.068-0.162-0.167-0.31-0.292-0.434l-6.12-6.107c-0.125-0.124-0.224-0.271-0.292-0.434s-0.103-0.337-0.103-0.513c0-0.176 0.035-0.35 0.103-0.513s0.167-0.31 0.292-0.434c0.25-0.248 0.588-0.388 0.94-0.388s0.69 0.139 0.94 0.388l6.12 6.12c0.749 0.75 1.17 1.767 1.17 2.827s-0.421 2.077-1.17 2.827l-6.12 6.12c-0.248 0.246-0.584 0.385-0.933 0.387-0.175 0.001-0.349-0.033-0.512-0.099s-0.31-0.164-0.435-0.288c-0.125-0.124-0.224-0.271-0.292-0.434s-0.103-0.337-0.103-0.513 0.035-0.35 0.103-0.513c0.068-0.162 0.167-0.31 0.292-0.434l6.12-6.107z"></path>
</symbol>

<symbol id="icon-heart" viewBox="0 0 32 32">
<path stroke-width="2.9091" stroke-miterlimit="4" stroke-linecap="round" stroke-linejoin="round" d="M15.991 6.848c-2.665-3.117-7.111-3.956-10.449-1.103-3.34 2.854-3.811 7.625-1.187 11.001 2.182 2.806 8.781 8.724 10.944 10.64 0.241 0.214 0.364 0.321 0.503 0.364 0.057 0.017 0.123 0.027 0.191 0.027s0.134-0.010 0.195-0.029l-0.005 0.001c0.141-0.042 0.262-0.15 0.505-0.364 2.163-1.916 8.764-7.834 10.944-10.64 2.623-3.375 2.211-8.177-1.187-11.001-3.398-2.825-7.786-2.016-10.452 1.101z"></path>
</symbol>

<symbol id="icon-burger" viewBox="0 0 32 32">
<path stroke-linejoin="round" stroke-linecap="round" stroke-miterlimit="4" stroke-width="2" d="M28 13.333h-24"></path>
<path stroke-linejoin="round" stroke-linecap="round" stroke-miterlimit="4" stroke-width="2" d="M28 8h-24"></path>
<path stroke-linejoin="round" stroke-linecap="round" stroke-miterlimit="4" stroke-width="2" d="M28 18.667h-24"></path>
<path stroke-linejoin="round" stroke-linecap="round" stroke-miterlimit="4" stroke-width="2" d="M28 24h-24"></path>
</symbol>

<symbol id="icon-search" viewBox="0 0 32 32">
<path d="M28.947 27.054l-4.947-4.907c1.92-2.394 2.85-5.433 2.598-8.492s-1.666-5.905-3.951-7.953c-2.285-2.048-5.269-3.143-8.337-3.059s-5.987 1.34-8.157 3.51c-2.17 2.17-3.426 5.089-3.51 8.157s1.011 6.051 3.059 8.337c2.048 2.285 4.894 3.7 7.953 3.951s6.097-0.678 8.492-2.598l4.907 4.907c0.124 0.125 0.271 0.224 0.434 0.292s0.337 0.102 0.513 0.102 0.35-0.035 0.513-0.102c0.163-0.068 0.31-0.167 0.434-0.292 0.24-0.249 0.375-0.581 0.375-0.927s-0.134-0.678-0.375-0.927zM14.667 24.001c-1.846 0-3.65-0.547-5.185-1.573s-2.731-2.483-3.438-4.189c-0.706-1.705-0.891-3.582-0.531-5.393s1.249-3.474 2.554-4.779c1.305-1.305 2.968-2.194 4.779-2.554s3.687-0.175 5.393 0.531c1.705 0.706 3.163 1.903 4.189 3.438s1.573 3.339 1.573 5.185c0 2.475-0.983 4.849-2.734 6.6s-4.124 2.734-6.6 2.734z"></path>
</symbol>

<symbol id="icon-shopping" viewBox="0 0 32 32">
<path stroke-linejoin="round" stroke-linecap="round" stroke-miterlimit="4" stroke-width="2.6667" d="M12 29.333c0.736 0 1.333-0.597 1.333-1.333s-0.597-1.333-1.333-1.333c-0.736 0-1.333 0.597-1.333 1.333s0.597 1.333 1.333 1.333z"></path>
<path stroke-linejoin="round" stroke-linecap="round" stroke-miterlimit="4" stroke-width="2.6667" d="M26.667 29.333c0.736 0 1.333-0.597 1.333-1.333s-0.597-1.333-1.333-1.333c-0.736 0-1.333 0.597-1.333 1.333s0.597 1.333 1.333 1.333z"></path>
<path stroke-linejoin="round" stroke-linecap="round" stroke-miterlimit="4" stroke-width="2.4" d="M1.333 1.333h5.333l3.573 17.853c0.122 0.614 0.456 1.165 0.943 1.558s1.098 0.601 1.723 0.589h12.96c0.626 0.012 1.236-0.197 1.723-0.589s0.821-0.944 0.943-1.558l2.133-11.187h-22.667"></path>
</symbol>

<symbol id="icon-star" viewBox="0 0 32 32">
<path d="M13.619 1.701c0.737-2.268 3.945-2.268 4.682 0l2.080 6.402c0.33 1.014 1.275 1.701 2.341 1.701h6.732c2.384 0 3.376 3.051 1.447 4.453l-5.446 3.957c-0.863 0.627-1.224 1.738-0.894 2.752l2.080 6.402c0.737 2.268-1.859 4.154-3.788 2.752l-5.446-3.957c-0.863-0.627-2.031-0.627-2.894 0l-5.446 3.957c-1.929 1.402-4.525-0.484-3.788-2.752l2.080-6.402c0.33-1.014-0.031-2.125-0.894-2.752l-5.446-3.957c-1.929-1.402-0.938-4.453 1.447-4.453h6.731c1.066 0 2.012-0.687 2.341-1.701l2.080-6.402z"></path>
</symbol>

<symbol id="icon-close" viewBox="0 0 32 32">
<path stroke-linejoin="round" stroke-linecap="round" stroke-miterlimit="4" stroke-width="2.6667" d="M24 8l-16 16"></path>
<path stroke-linejoin="round" stroke-linecap="round" stroke-miterlimit="4" stroke-width="2.6667" d="M8 8l16 16"></path>
</symbol>
</defs>
</svg>
